<?xml version="1.0" encoding="utf-8"?>
<!-- Generator: Adobe Illustrator 25.4.1, SVG Export Plug-In . SVG Version: 6.00 Build 0)  -->
<svg version="1.1" id="Capa_1" xmlns="http://www.w3.org/2000/svg" xmlns:xlink="http://www.w3.org/1999/xlink" x="0px" y="0px"
	 viewBox="0 0 32 32" style="enable-background:new 0 0 32 32;" xml:space="preserve">
<style type="text/css">
	.st0{fill:#FFFFFF;}
	.st1{fill-rule:evenodd;clip-rule:evenodd;fill:#FFFFFF;}
</style>
<path class="st0" d="M13.3,14.7c-0.2,0.2-0.6,0.3-1,0.3h-2.2v-2.3h2.1c0.2,0,0.4,0,0.6,0c0.2,0,0.3,0.1,0.5,0.2
	c0.1,0.1,0.2,0.2,0.3,0.4c0.1,0.1,0.1,0.4,0.1,0.6C13.7,14.2,13.6,14.5,13.3,14.7z"/>
<path class="st0" d="M13.1,19.1c-0.2,0-0.4,0.1-0.6,0.1h-2.3v-2.7h2.3c0.5,0,0.9,0.1,1.1,0.3c0.3,0.2,0.4,0.6,0.4,1.1
	c0,0.2-0.1,0.5-0.1,0.6c-0.1,0.2-0.2,0.3-0.4,0.4C13.4,19,13.3,19.1,13.1,19.1z"/>
<path class="st0" d="M20.5,15c0.5,0,0.9,0.1,1.1,0.4c0.2,0.2,0.4,0.6,0.5,1.1h-3.2c0-0.1,0-0.2,0.1-0.4c0,0,0-0.1,0-0.1
	c0-0.2,0.1-0.4,0.2-0.5c0.1-0.1,0.3-0.3,0.5-0.4C19.9,15.1,20.1,15,20.5,15z"/>
<path class="st1" d="M16,0C7.2,0,0,7.2,0,16c0,8.8,7.2,16,16,16c8.8,0,16-7.2,16-16C32,7.2,24.8,0,16,0z M13.9,11.1
	C13.5,11,13.1,11,12.7,11H8v9.8h4.8c0.4,0,0.9-0.1,1.3-0.2c0.4-0.1,0.8-0.3,1.1-0.5c0.3-0.2,0.6-0.5,0.8-0.9
	c0.2-0.4,0.3-0.8,0.3-1.3c0-0.6-0.2-1.1-0.5-1.6c-0.3-0.4-0.7-0.7-1.3-0.9c0.4-0.2,0.8-0.5,1-0.8c0.2-0.3,0.4-0.7,0.4-1.2
	c0-0.4-0.1-0.8-0.2-1.1s-0.4-0.6-0.6-0.7C14.6,11.4,14.3,11.2,13.9,11.1z M20.6,19.6c-0.6,0-1-0.1-1.3-0.4c-0.3-0.3-0.5-0.8-0.5-1.4
	H24c0-0.6,0-1.1-0.1-1.6c-0.1-0.5-0.4-1-0.6-1.3c-0.3-0.4-0.6-0.7-1.1-1c-0.5-0.2-1-0.4-1.6-0.4c-0.6,0-1,0.1-1.5,0.3
	c-0.4,0.2-0.8,0.5-1.1,0.8c-0.3,0.4-0.6,0.7-0.7,1.2c-0.2,0.5-0.2,1-0.2,1.5c0,0.6,0.1,1.1,0.2,1.5c0.1,0.5,0.4,0.9,0.7,1.2
	c0.3,0.4,0.7,0.6,1.1,0.8c0.5,0.2,1,0.3,1.5,0.3c0.8,0,1.5-0.2,2.1-0.6c0.6-0.4,1-1,1.3-1.8h-1.7c-0.1,0.2-0.2,0.4-0.5,0.6
	C21.4,19.5,21,19.6,20.6,19.6z M22.4,11.7h-4v1h4V11.7z"/>
</svg>
