<svg width="119" height="14" viewBox="0 0 119 14" fill="none" xmlns="http://www.w3.org/2000/svg">
<path d="M3.528 13L0.324 0.399999H2.772L5.436 11.47H5.688L8.352 0.399999H10.8L7.596 13H3.528ZM14.614 13.252C13.978 13.252 13.408 13.144 12.904 12.928C12.4 12.7 11.998 12.376 11.698 11.956C11.41 11.524 11.266 11.002 11.266 10.39C11.266 9.778 11.41 9.268 11.698 8.86C11.998 8.44 12.406 8.128 12.922 7.924C13.45 7.708 14.05 7.6 14.722 7.6H17.17V7.096C17.17 6.676 17.038 6.334 16.774 6.07C16.51 5.794 16.09 5.656 15.514 5.656C14.95 5.656 14.53 5.788 14.254 6.052C13.978 6.304 13.798 6.634 13.714 7.042L11.626 6.34C11.77 5.884 11.998 5.47 12.31 5.098C12.634 4.714 13.06 4.408 13.588 4.18C14.128 3.94 14.782 3.82 15.55 3.82C16.726 3.82 17.656 4.114 18.34 4.702C19.024 5.29 19.366 6.142 19.366 7.258V10.588C19.366 10.948 19.534 11.128 19.87 11.128H20.59V13H19.078C18.634 13 18.268 12.892 17.98 12.676C17.692 12.46 17.548 12.172 17.548 11.812V11.794H17.206C17.158 11.938 17.05 12.13 16.882 12.37C16.714 12.598 16.45 12.802 16.09 12.982C15.73 13.162 15.238 13.252 14.614 13.252ZM15.01 11.416C15.646 11.416 16.162 11.242 16.558 10.894C16.966 10.534 17.17 10.06 17.17 9.472V9.292H14.884C14.464 9.292 14.134 9.382 13.894 9.562C13.654 9.742 13.534 9.994 13.534 10.318C13.534 10.642 13.66 10.906 13.912 11.11C14.164 11.314 14.53 11.416 15.01 11.416ZM22.2483 13V4.072H24.4803V5.242H24.8043C24.9483 4.93 25.2183 4.636 25.6143 4.36C26.0103 4.072 26.6103 3.928 27.4143 3.928C28.1103 3.928 28.7163 4.09 29.2323 4.414C29.7603 4.726 30.1683 5.164 30.4563 5.728C30.7443 6.28 30.8883 6.928 30.8883 7.672V13H28.6203V7.852C28.6203 7.18 28.4523 6.676 28.1163 6.34C27.7923 6.004 27.3243 5.836 26.7123 5.836C26.0163 5.836 25.4763 6.07 25.0923 6.538C24.7083 6.994 24.5163 7.636 24.5163 8.464V13H22.2483ZM37.4081 13.252C36.5201 13.252 35.7341 13.066 35.0501 12.694C34.3781 12.31 33.8501 11.776 33.4661 11.092C33.0941 10.396 32.9081 9.58 32.9081 8.644V8.428C32.9081 7.492 33.0941 6.682 33.4661 5.998C33.8381 5.302 34.3601 4.768 35.0321 4.396C35.7041 4.012 36.4841 3.82 37.3721 3.82C38.2481 3.82 39.0101 4.018 39.6581 4.414C40.3061 4.798 40.8101 5.338 41.1701 6.034C41.5301 6.718 41.7101 7.516 41.7101 8.428V9.202H35.2121C35.2361 9.814 35.4641 10.312 35.8961 10.696C36.3281 11.08 36.8561 11.272 37.4801 11.272C38.1161 11.272 38.5841 11.134 38.8841 10.858C39.1841 10.582 39.4121 10.276 39.5681 9.94L41.4221 10.912C41.2541 11.224 41.0081 11.566 40.6841 11.938C40.3721 12.298 39.9521 12.61 39.4241 12.874C38.8961 13.126 38.2241 13.252 37.4081 13.252ZM35.2301 7.51H39.4061C39.3581 6.994 39.1481 6.58 38.7761 6.268C38.4161 5.956 37.9421 5.8 37.3541 5.8C36.7421 5.8 36.2561 5.956 35.8961 6.268C35.5361 6.58 35.3141 6.994 35.2301 7.51ZM47.4368 13.252C46.2728 13.252 45.3188 13 44.5748 12.496C43.8308 11.992 43.3808 11.272 43.2248 10.336L45.3128 9.796C45.3968 10.216 45.5348 10.546 45.7268 10.786C45.9308 11.026 46.1768 11.2 46.4648 11.308C46.7648 11.404 47.0888 11.452 47.4368 11.452C47.9648 11.452 48.3548 11.362 48.6068 11.182C48.8588 10.99 48.9848 10.756 48.9848 10.48C48.9848 10.204 48.8648 9.994 48.6248 9.85C48.3848 9.694 48.0008 9.568 47.4728 9.472L46.9688 9.382C46.3448 9.262 45.7748 9.1 45.2588 8.896C44.7428 8.68 44.3288 8.386 44.0168 8.014C43.7048 7.642 43.5488 7.162 43.5488 6.574C43.5488 5.686 43.8728 5.008 44.5208 4.54C45.1688 4.06 46.0208 3.82 47.0768 3.82C48.0728 3.82 48.9008 4.042 49.5608 4.486C50.2208 4.93 50.6528 5.512 50.8568 6.232L48.7508 6.88C48.6548 6.424 48.4568 6.1 48.1568 5.908C47.8688 5.716 47.5088 5.62 47.0768 5.62C46.6448 5.62 46.3148 5.698 46.0868 5.854C45.8588 5.998 45.7448 6.202 45.7448 6.466C45.7448 6.754 45.8648 6.97 46.1048 7.114C46.3448 7.246 46.6688 7.348 47.0768 7.42L47.5808 7.51C48.2528 7.63 48.8588 7.792 49.3988 7.996C49.9508 8.188 50.3828 8.47 50.6948 8.842C51.0188 9.202 51.1808 9.694 51.1808 10.318C51.1808 11.254 50.8388 11.98 50.1548 12.496C49.4828 13 48.5768 13.252 47.4368 13.252ZM56.8762 13.252C55.7122 13.252 54.7582 13 54.0142 12.496C53.2702 11.992 52.8202 11.272 52.6642 10.336L54.7522 9.796C54.8362 10.216 54.9742 10.546 55.1662 10.786C55.3702 11.026 55.6162 11.2 55.9042 11.308C56.2042 11.404 56.5282 11.452 56.8762 11.452C57.4042 11.452 57.7942 11.362 58.0462 11.182C58.2982 10.99 58.4242 10.756 58.4242 10.48C58.4242 10.204 58.3042 9.994 58.0642 9.85C57.8242 9.694 57.4402 9.568 56.9122 9.472L56.4082 9.382C55.7842 9.262 55.2142 9.1 54.6982 8.896C54.1822 8.68 53.7682 8.386 53.4562 8.014C53.1442 7.642 52.9882 7.162 52.9882 6.574C52.9882 5.686 53.3122 5.008 53.9602 4.54C54.6082 4.06 55.4602 3.82 56.5162 3.82C57.5122 3.82 58.3402 4.042 59.0002 4.486C59.6602 4.93 60.0922 5.512 60.2962 6.232L58.1902 6.88C58.0942 6.424 57.8962 6.1 57.5962 5.908C57.3082 5.716 56.9482 5.62 56.5162 5.62C56.0842 5.62 55.7542 5.698 55.5262 5.854C55.2982 5.998 55.1842 6.202 55.1842 6.466C55.1842 6.754 55.3042 6.97 55.5442 7.114C55.7842 7.246 56.1082 7.348 56.5162 7.42L57.0202 7.51C57.6922 7.63 58.2982 7.792 58.8382 7.996C59.3902 8.188 59.8222 8.47 60.1342 8.842C60.4582 9.202 60.6202 9.694 60.6202 10.318C60.6202 11.254 60.2782 11.98 59.5942 12.496C58.9222 13 58.0162 13.252 56.8762 13.252ZM65.3093 13.252C64.6733 13.252 64.1033 13.144 63.5993 12.928C63.0953 12.7 62.6933 12.376 62.3933 11.956C62.1053 11.524 61.9613 11.002 61.9613 10.39C61.9613 9.778 62.1053 9.268 62.3933 8.86C62.6933 8.44 63.1013 8.128 63.6173 7.924C64.1453 7.708 64.7453 7.6 65.4173 7.6H67.8653V7.096C67.8653 6.676 67.7333 6.334 67.4693 6.07C67.2053 5.794 66.7853 5.656 66.2093 5.656C65.6453 5.656 65.2253 5.788 64.9493 6.052C64.6733 6.304 64.4933 6.634 64.4093 7.042L62.3213 6.34C62.4653 5.884 62.6933 5.47 63.0053 5.098C63.3293 4.714 63.7553 4.408 64.2833 4.18C64.8233 3.94 65.4773 3.82 66.2453 3.82C67.4213 3.82 68.3513 4.114 69.0353 4.702C69.7193 5.29 70.0613 6.142 70.0613 7.258V10.588C70.0613 10.948 70.2293 11.128 70.5653 11.128H71.2853V13H69.7733C69.3293 13 68.9633 12.892 68.6753 12.676C68.3873 12.46 68.2433 12.172 68.2433 11.812V11.794H67.9013C67.8533 11.938 67.7453 12.13 67.5773 12.37C67.4093 12.598 67.1453 12.802 66.7853 12.982C66.4253 13.162 65.9333 13.252 65.3093 13.252ZM65.7053 11.416C66.3413 11.416 66.8573 11.242 67.2533 10.894C67.6613 10.534 67.8653 10.06 67.8653 9.472V9.292H65.5793C65.1593 9.292 64.8293 9.382 64.5893 9.562C64.3493 9.742 64.2293 9.994 64.2293 10.318C64.2293 10.642 64.3553 10.906 64.6073 11.11C64.8593 11.314 65.2253 11.416 65.7053 11.416ZM77.4419 13V0.399999H79.8179V10.84H85.5779V13H77.4419ZM90.6718 13.144C89.9758 13.144 89.3638 12.988 88.8358 12.676C88.3198 12.352 87.9178 11.908 87.6298 11.344C87.3418 10.78 87.1978 10.132 87.1978 9.4V4.072H89.4658V9.22C89.4658 9.892 89.6278 10.396 89.9518 10.732C90.2878 11.068 90.7618 11.236 91.3738 11.236C92.0698 11.236 92.6098 11.008 92.9938 10.552C93.3778 10.084 93.5698 9.436 93.5698 8.608V4.072H95.8378V13H93.6058V11.83H93.2818C93.1378 12.13 92.8678 12.424 92.4718 12.712C92.0758 13 91.4758 13.144 90.6718 13.144ZM98.3616 13V4.072H100.594V5.242H100.918C101.062 4.93 101.332 4.636 101.728 4.36C102.124 4.072 102.724 3.928 103.528 3.928C104.224 3.928 104.83 4.09 105.346 4.414C105.874 4.726 106.282 5.164 106.57 5.728C106.858 6.28 107.002 6.928 107.002 7.672V13H104.734V7.852C104.734 7.18 104.566 6.676 104.23 6.34C103.906 6.004 103.438 5.836 102.826 5.836C102.13 5.836 101.59 6.07 101.206 6.538C100.822 6.994 100.63 7.636 100.63 8.464V13H98.3616ZM112.225 13.252C111.589 13.252 111.019 13.144 110.515 12.928C110.011 12.7 109.609 12.376 109.309 11.956C109.021 11.524 108.877 11.002 108.877 10.39C108.877 9.778 109.021 9.268 109.309 8.86C109.609 8.44 110.017 8.128 110.533 7.924C111.061 7.708 111.661 7.6 112.333 7.6H114.781V7.096C114.781 6.676 114.649 6.334 114.385 6.07C114.121 5.794 113.701 5.656 113.125 5.656C112.561 5.656 112.141 5.788 111.865 6.052C111.589 6.304 111.409 6.634 111.325 7.042L109.237 6.34C109.381 5.884 109.609 5.47 109.921 5.098C110.245 4.714 110.671 4.408 111.199 4.18C111.739 3.94 112.393 3.82 113.161 3.82C114.337 3.82 115.267 4.114 115.951 4.702C116.635 5.29 116.977 6.142 116.977 7.258V10.588C116.977 10.948 117.145 11.128 117.481 11.128H118.201V13H116.689C116.245 13 115.879 12.892 115.591 12.676C115.303 12.46 115.159 12.172 115.159 11.812V11.794H114.817C114.769 11.938 114.661 12.13 114.493 12.37C114.325 12.598 114.061 12.802 113.701 12.982C113.341 13.162 112.849 13.252 112.225 13.252ZM112.621 11.416C113.257 11.416 113.773 11.242 114.169 10.894C114.577 10.534 114.781 10.06 114.781 9.472V9.292H112.495C112.075 9.292 111.745 9.382 111.505 9.562C111.265 9.742 111.145 9.994 111.145 10.318C111.145 10.642 111.271 10.906 111.523 11.11C111.775 11.314 112.141 11.416 112.621 11.416Z" fill="#33488E"/>
</svg>
