<svg width="271" height="97" viewBox="0 0 271 97" fill="none" xmlns="http://www.w3.org/2000/svg">
<g clip-path="url(#clip0_3_8)">
<path d="M63.1681 10.4252C66.6964 10.1919 72.1522 10.0248 75.5411 10.9428C77.1613 11.3817 77.1795 17.0197 76.2169 18.1801C73.3622 21.6209 63.6939 17.3069 61.4415 21.2602C60.3446 23.1855 60.7759 30.5802 61.504 32.7758C64.753 35.0905 72.1421 33.9507 76.1632 34.2279C78.6759 34.401 81.408 34.3258 83.4054 32.6479C84.0879 30.6888 83.5863 29.3032 84.5275 27.7924C85.3275 26.5084 87.3663 26.6376 88.7452 26.3608C92.6695 25.5729 90.998 21.8383 92.5734 19.4223C93.6291 17.8036 96.3412 18.0363 98.254 17.7172C98.8981 17.279 99.2732 16.8476 99.8087 16.2846C100.096 15.2342 100.253 13.4822 100.37 12.3676C101.137 11.2093 101.78 10.4775 103.282 10.4399C109.327 10.3179 115.462 10.3271 121.502 10.3969C125.477 10.4429 125.693 14.0327 125.487 17.0512C125.297 19.8466 125.96 23.7994 124.818 26.3734C122.98 27.5952 120.353 27.8446 118.186 28.7641C116.601 31.0376 117.646 32.7628 116.156 34.7358C114.917 36.3759 112.104 35.1097 110.552 36.1596C108.362 37.6413 109.947 40.4797 108.355 42.2387C106.774 43.9333 103.455 43.2017 101.37 43.3549C98.429 43.5983 88.4456 42.622 86.6202 44.141C84.0249 46.301 86.4463 55.733 83.8185 58.518C82.6391 59.8765 81.0638 59.4319 79.5665 59.5942C75.0831 60.4884 78.387 66.3042 73.7589 67.727C70.7428 68.654 63.752 67.0224 61.4474 69.1654C60.2054 70.3206 60.9339 73.855 63.4611 73.9467C65.5702 74.0233 68.5224 74.0919 70.7189 74.0453C74.3433 73.9563 78.2265 74.2172 81.796 73.9262C84.103 72.5863 83.8248 71.3467 84.0079 68.8402C84.4937 67.8079 84.9087 67.1702 86.0275 66.8295C91.9763 65.0245 94.4059 68.6453 92.5782 74.1137C91.9757 75.9149 88.3413 75.5017 86.6437 76.0629C84.9915 77.6511 85.5143 78.4464 85.2071 80.6352C85.1645 81.1718 84.7631 82.2127 84.298 82.5229C83.1733 83.2081 81.6924 83.3558 80.4132 83.3598C76.268 83.3726 72.1305 83.3733 67.9864 83.3617C65.86 83.356 63.7176 83.4259 61.6134 83.0805C61.0952 82.6466 60.5812 82.0697 60.1134 81.5717C59.9665 80.2257 60.3776 76.7863 58.755 76.0854C56.9779 75.3568 54.8491 75.61 52.9513 75.6459C50.6911 75.6887 48.6282 75.4501 46.4923 76.2436C46.2076 76.6566 45.6012 77.5361 45.5275 77.9887C45.0588 80.8829 45.7615 83.1706 41.839 83.3002C37.1155 83.4562 32.1725 83.3306 27.423 83.3617C25.5296 83.3741 23.4206 83.4348 21.546 83.0707C19.5904 81.2974 20.2254 80.6376 19.7198 78.1908C19.1096 75.2393 16.1544 75.858 13.9288 75.2817C13.4703 75.1626 12.6256 74.5716 12.2179 74.2914C11.6252 73.0205 11.3735 71.0393 11.546 69.6781C12.045 65.7421 16.6532 67.1849 18.7511 65.64C21.1354 63.8832 18.3438 58.6474 22.7696 58.1322C25.3984 57.8264 27.8761 58.0722 30.505 57.9965C34.3249 57.9934 38.2053 57.8291 42.0089 58.1576C47.9828 58.6864 42.4219 65.9521 48.7784 66.5063C50.2771 66.637 51.7296 66.5278 53.253 66.5697C54.7058 66.6098 56.3626 66.648 57.7755 66.2426C60.6997 65.2275 59.2216 60.6517 61.128 58.8051C62.5615 57.4667 65.1078 58.5946 66.5587 57.3002C68.1747 55.8585 67.5433 52.0884 67.6671 50.0619C67.6252 48.8046 67.8099 45.5421 66.9405 44.6459C64.4573 42.0872 62.7458 44.7989 60.1339 41.5688C60.0686 40.4627 60.0866 38.7969 59.7306 37.727C58.3925 33.8442 52.8477 37.3378 52.1066 33.3705C51.4157 29.6725 50.7848 23.2134 52.5079 19.8305C54.8293 18.4607 59.3806 18.0815 59.8566 15.3149C60.3221 12.6061 59.7789 11.0585 63.1681 10.4252ZM43.9386 70.85C43.7811 66.9295 39.8961 67.2676 37.0519 67.4506C34.5673 67.5502 22.5769 67.7005 21.4669 68.9027C20.8071 69.6176 20.7996 70.9897 20.8741 71.89C20.9191 72.4333 21.1288 72.8852 21.5509 73.2406C23.0569 74.5083 25.7476 74.1397 27.6027 74.1156L36.1798 74.1332C38.8362 74.138 44.1035 74.9655 43.9386 70.85ZM78.2804 40.3676C77.4082 39.8804 76.2881 39.8268 75.3175 39.9057C71.9546 40.614 72.3529 43.4046 73.2833 46.0727C74.5878 46.8107 75.123 47.0221 76.6407 46.9018C77.3195 46.8341 78.4003 46.8025 78.9366 46.4565C79.9131 44.9993 80.0163 41.3372 78.2804 40.3676ZM113.178 19.5609C110.592 19.3635 107.729 19.5266 105.12 19.5131C99.0324 19.6674 102.397 22.7433 99.8136 26.5502C97.0386 28.0756 94.1513 26.5461 93.1788 30.0551C92.7566 31.579 93.3979 32.8091 94.4581 33.8481C96.8774 34.455 101.718 34.1517 104.45 34.2025C108.107 33.7477 107.744 31.7468 107.896 28.6957C110.285 24.7929 113.296 28.0751 115.831 25.1215C116.52 24.3192 116.318 22.4353 116.202 21.3969C115.329 20.2649 114.707 19.6778 113.178 19.5609Z" fill="white"/>
<path d="M226.115 42.2317C229.146 42.21 233.044 42.0234 235.969 42.3743C240.279 43.3777 236.994 50.1697 242.3 49.9622C247.958 49.7408 244.217 44.9977 248.285 42.3069C249.079 42.258 249.874 42.2236 250.667 42.2034C252.536 42.1695 253.366 42.6576 254.635 43.8801C257.395 53.3017 250.501 50.1474 247.447 53.1507C246.638 53.9469 247.743 64.1221 245.828 66.0208C243.769 68.0619 241.46 66.7097 239.529 68.7415C235.536 78.8886 254.775 69.2432 255.137 77.7942C255.287 81.3389 254.694 82.5533 251.301 82.9837C248.019 83.011 243.861 83.19 240.477 82.927C235.91 82.5713 240.878 73.1787 232.576 75.887C231.327 76.2946 231.218 78.8123 231.137 79.9749C230.876 83.6836 226.054 82.919 223.447 83.0227C219.855 82.8375 216.221 84.244 213.809 81.0403C213.619 79.9534 213.676 78.691 213.389 77.6301C212.219 73.3186 209.946 77.3059 206.21 73.9065C205.673 71.9769 205.372 62.3066 206.42 60.26C207.142 58.8636 208.867 59.0717 210.231 58.6936C214.258 57.5775 213.2 54.3876 215.056 51.0911C217.09 49.8073 218.419 50.3146 220.413 49.4758C222.571 48.5668 221.695 46.0915 222.571 43.6292C223.754 42.6095 224.612 42.3495 226.115 42.2317ZM233.981 52.1692C231.68 51.5193 227.815 51.564 225.345 51.7688C220.303 53.0871 224.791 57.6992 220.126 59.0335C217.411 59.6886 215.659 58.8954 215.125 62.3977C214.94 63.6128 215.183 65.8841 215.087 66.8264C214.282 74.7037 216.808 73.9262 223.486 73.9807C224.768 73.9913 226.281 74.057 227.709 73.6653C231.71 71.7831 227.83 68.6255 231.598 66.6594C233.842 65.5817 236.847 66.8757 237.823 63.8303C238.263 62.4601 238.2 61.5368 237.984 60.1253C237.554 57.335 237.327 53.1155 233.981 52.1692Z" fill="white"/>
<path d="M171.006 41.2482C172.475 41.2443 174.223 41.0964 175.633 41.544C178.784 42.5445 177.816 45.9059 179.049 48.2037C179.333 48.734 179.809 49.0792 180.379 49.2543C181.417 49.5731 182.97 49.6596 183.954 49.1057C185.472 48.2495 185.692 45.9627 186.113 44.4523C186.406 43.4041 186.837 42.4153 187.832 41.8638C189.688 40.8344 198.222 41.0139 200.385 41.6491C200.965 41.8192 201.373 41.9994 201.662 42.5522C202.912 44.9275 202.882 61.736 202.019 64.4841C201.094 67.4287 197.784 65.9112 195.817 67.0062C195.26 67.3157 195.04 67.8618 194.895 68.4456C194.607 69.5964 194.593 71.2163 195.255 72.254C196.017 73.4445 198.015 73.6235 199.289 73.9346C200.398 74.2052 201.502 74.5894 202.117 75.6196C202.86 76.8691 202.583 78.6985 202.234 80.0258C202.018 80.8458 201.67 81.5856 200.897 82.0223C198.907 83.1473 190.372 83.1346 188.073 82.4903C187.222 82.2514 186.5 81.8048 186.065 81.0184C185.247 79.5346 185.226 69.5898 185.725 67.9787C186.432 65.6902 190.704 65.0368 192.682 64.0169C193.223 61.5561 193.753 53.196 192.124 51.2649C191.724 50.7954 191.147 50.5102 190.531 50.4759C189.275 50.3937 187.721 51.3153 186.804 52.1135C185.983 53.6685 187.069 55.6849 186.075 57.3489C184.613 59.8016 180.805 58.1043 179.232 60.0995C178.112 61.5184 179.059 63.7445 177.816 65.2746C176.91 66.3905 175.673 66.473 174.342 66.6179C173.463 66.7138 172.491 66.8083 171.847 67.4853C169.68 69.7619 171.892 79.329 169.971 81.5872C169.381 82.2792 168.097 82.5119 167.243 82.5929C164.944 82.8113 158.405 82.8461 156.27 82.4304C155.844 82.3474 155.447 82.1672 155.115 81.8846C154.308 81.1951 154.08 80.0535 154.016 79.0469C153.487 70.8685 158.848 75.729 161.049 71.8052C162.018 70.077 161.181 67.1592 162.849 65.8925C164.523 64.6218 167.205 65.6336 168.595 64.0376C169.981 62.4438 169.467 56.6024 169.307 54.4656C169.233 53.4654 169.052 51.662 168.225 50.9705C167.588 50.4398 166.463 50.4021 165.673 50.4662C161.576 50.798 163.305 55.7213 161.376 57.9263C160.729 58.6659 159.785 58.9908 158.823 59.0422C157.706 59.1017 155.482 58.9052 154.631 58.1066C154.11 57.6167 153.961 56.8634 153.943 56.1788C153.679 46.2907 158.774 51.5696 161.044 48.2268C162.246 46.4584 160.915 44.0914 162.601 42.3544C164.156 40.7509 168.796 41.2945 171.006 41.2482Z" fill="white"/>
<path d="M117.621 41.906C120.459 41.8846 123.419 41.8059 126.26 41.9159C127.809 41.976 128.625 42.4261 129.721 43.4685C130.115 44.8453 130.478 47.2703 130.057 48.6619C129.354 50.9856 126.354 50.6678 124.575 51.6783C121.691 53.3167 122.801 54.874 122.174 57.2755C121.588 59.5216 118.516 59.0157 116.883 59.1799C116.518 59.2166 115.558 59.7123 115.162 59.9141C113.28 62.4823 114.104 65.0434 113.872 68.0112C113.645 70.9261 114.762 74.2732 118.314 74.0176C121.856 73.7627 120.247 69.2218 122.01 67.1779C123.912 64.9717 127.053 66.7339 128.847 64.5137C130.101 62.9449 129.076 60.5756 130.353 59.0565C131.304 57.925 133.687 57.9988 135.159 57.8988C135.348 57.7616 135.532 57.6193 135.713 57.4718C138.505 55.1709 136.741 48.8827 137.227 45.5072C137.487 43.7002 137.744 43.328 139.12 42.2072C141.849 41.9697 149.172 42.0453 151.97 42.1947C152.542 42.5484 153.013 42.9829 153.52 43.4213C153.97 44.6638 154.384 48.0927 153.809 49.3554C152.993 51.1511 150.532 50.9467 148.895 51.6272C145.651 52.9747 146.89 55.1202 145.968 57.4383C144.994 59.8882 141.381 59.257 139.098 60.1351C138.416 60.9017 138.157 61.6135 137.833 62.5653C137.908 63.0862 138.059 63.741 138.166 64.2682C138.569 66.7246 138.476 68.617 138.235 71.1494C138.048 73.1153 140.456 74.11 142.094 74.0153C143.774 73.8715 144.773 71.6929 145.13 70.2917C146.285 65.7528 149.65 64.3318 153.464 67.5693C155.89 75.5735 151.937 73.4328 147.497 76.0136C145.105 77.4035 147.877 82.7044 144.361 83.2227C140.919 83.7303 137.629 83.3451 134.181 83.4529C127.526 83.6361 131.16 79.0221 127.791 75.726C126.081 74.0306 124.313 75.1192 122.908 76.4966C122.529 77.9174 121.729 81.1778 120.812 82.1098C118.332 84.6288 110.207 83.5569 107.81 81.3091C106.025 79.6342 104.765 76.5289 104.816 74.176C104.911 69.7603 104.354 65.1692 105.091 60.8648C106.267 57.5688 112.16 59.1562 113.058 55.9122C113.602 53.5728 113.285 50.8535 113.293 48.4379C113.305 44.5973 113.042 42.1749 117.621 41.906Z" fill="white"/>
</g>
<defs>
<clipPath id="clip0_3_8">
<rect width="271" height="97" fill="white"/>
</clipPath>
</defs>
</svg>
